<svg width="52" height="44" viewBox="0 0 52 44" fill="none" xmlns="http://www.w3.org/2000/svg">
<path fill-rule="evenodd" clip-rule="evenodd" d="M48.3541 43.46C47.9945 43.48 46.6457 43.37 46.1062 43.34L41.4905 42.84C39.1028 42.68 36.725 42.55 34.3872 42.81C32.9285 42.97 31.4899 43.22 30.0812 43.78C28.9822 44.31 27.6635 43.84 27.134 42.74C26.6045 41.64 27.074 40.32 28.173 39.79C29.5817 38.99 31.0403 38.44 32.5389 38.02C31.0703 37.37 29.5917 36.66 28.123 35.89C24.4265 33.93 20.7699 31.58 17.403 28.89C15.7146 27.55 14.1161 26.11 12.6175 24.6C11.079 23.05 9.6503 21.44 8.34152 19.76C4.03554 14.2 1.03834 8.19004 0.0492696 2.26004C-0.150544 1.43004 0.368971 0.590041 1.20819 0.390041C2.0474 0.190041 2.87663 0.710041 3.07644 1.55004C4.64497 6.71004 8.1517 11.59 12.5276 16.14C13.8664 17.53 15.305 18.88 16.7836 20.21C18.2423 21.52 19.7509 22.78 21.2994 24.02C25.2058 27.16 29.3719 30.01 33.558 32.3C35.2564 33.23 36.9448 34.07 38.6132 34.82C38.1637 34.1 37.7241 33.38 37.3144 32.63C36.6351 31.39 36.0256 30.14 35.4362 28.85C34.9866 28.12 35.2164 27.16 35.9457 26.71C36.675 26.26 37.6341 26.49 38.0837 27.22C38.9229 28.27 39.7821 29.27 40.6713 30.27C41.5405 31.25 42.4397 32.17 43.3888 33.08C44.168 33.88 45.277 34.9 46.4459 35.84C47.2751 36.5 48.1243 37.12 48.9536 37.27C50.602 37.66 51.0017 38.7 51.1016 38.89C51.4313 39.51 51.9807 43.35 48.3541 43.46Z" fill="#E10303"/>
</svg>
