<svg width="72" height="61" viewBox="0 0 72 61" fill="none" xmlns="http://www.w3.org/2000/svg"><path d="M64.3132 41.4313c1.0492-4.203 7.6828-3.0756 6.6336 1.1275-1.5639 6.2552-4.2295 11.8785-8.2135 16.929-.8284 1.0654-2.7783 1.5974-3.9784.9457-5.2134-3.1003-10.4069-6.2993-15.6003-9.4984-2.6361-1.6587-1.9006-6.8486 1.7996-5.8999 3.9955 1.008 7.7148 2.3712 11.4533 4.1487C50.7327 23.4084 25.5307 9.20941 1.61813 2.35221.260115 1.97672.577975-.115019 1.95581.161801 27.8784 5.67783 56.1314 20.4897 61.9216 48.2388c1.0464-2.1507 1.8174-4.4593 2.3916-6.8075z" fill="#E10303"/></svg>